<svg width="24" height="16" viewBox="0 0 24 16" fill="none" xmlns="http://www.w3.org/2000/svg">
<path d="M22.0302 9.54199L11.6741 10.8966L0.993164 9.54199V9.61324L11.6741 10.9322L22.0302 9.61324V9.54199Z" fill="black"/>
<g filter="url(#filter0_d_256_2068)">
<path d="M9.83402 7.2959H13.4785V8.08012H9.83402V7.2959Z" fill="#D3582D"/>
</g>
<path d="M22.4217 9.67066C23.2012 9.51377 23.3238 8.96364 23.2878 8.7081C23.2095 8.82097 23.0098 9.07172 22.8367 9.17157C22.6635 9.27142 22.4157 9.27262 22.3134 9.26063C22.3856 9.231 22.5443 9.12515 22.6022 8.93984C22.6743 8.7081 22.5481 8.47637 22.5481 8.49435C22.5481 8.50857 22.5 8.64285 22.4758 8.7081C22.3496 9.0289 21.9526 9.15376 21.8625 9.17157C21.7722 9.18938 21.4655 9.11813 21.6278 9.08251C21.7578 9.0539 21.8503 8.93984 21.8805 8.8864C22.0392 8.52998 21.9707 8.31006 21.9166 8.24481C21.8985 8.28043 21.9418 8.28403 21.8263 8.51217C21.682 8.79734 21.3031 8.90421 21.1986 8.92202C21.1152 8.93624 20.9809 8.83296 20.9242 8.77952C20.9302 8.78535 20.9856 8.76514 21.1587 8.63685C21.332 8.50857 21.3151 8.25063 21.2851 8.13776C21.2911 8.10813 21.2887 8.07713 21.231 8.1912C21.1587 8.33387 20.9063 8.51217 20.6716 8.5656C20.4841 8.60842 20.3529 8.50018 20.3107 8.44075C20.3349 8.42893 20.4046 8.38371 20.4913 8.29825C20.5778 8.21261 20.5995 8.00109 20.5995 7.90603C20.5694 7.94765 20.4623 8.05589 20.2748 8.15557C20.0871 8.25543 19.9199 8.221 19.8598 8.1912C18.7893 7.43081 16.403 5.86712 15.4214 5.69602C14.1946 5.48213 13.2022 6.17725 13.0037 6.6763C12.8054 7.17536 12.9552 7.84848 13.1356 8.02678C13.3194 8.20833 13.9419 8.72592 14.6096 8.52998C15.277 8.33387 15.4394 7.76353 15.3493 7.35359C15.2798 7.03824 14.9936 6.93933 14.8434 6.92691C14.8374 6.91763 14.831 6.91914 14.8261 6.92583C14.8315 6.92605 14.8374 6.92641 14.8434 6.92691C14.8586 6.95056 14.8725 7.04418 14.862 7.30012C14.844 7.74572 14.3569 7.90603 14.0502 7.79916C13.7434 7.69223 13.3827 6.9793 14.2487 6.58719C15.1147 6.19508 16.4138 6.83672 17.0632 7.19317C17.5829 7.47834 18.9156 8.32205 19.5169 8.7081C20.1604 9.09433 21.6422 9.82755 22.4217 9.67066Z" fill="url(#paint0_linear_256_2068)"/>
<path d="M0.871662 9.67066C0.0921963 9.51377 -0.0304313 8.96364 0.00553607 8.7081C0.083808 8.82097 0.283508 9.07172 0.456665 9.17157C0.629823 9.27142 0.877659 9.27262 0.97991 9.26063C0.907804 9.231 0.749032 9.12515 0.691142 8.93984C0.619036 8.7081 0.745266 8.47637 0.745266 8.49435C0.745266 8.50857 0.793393 8.64285 0.817543 8.7081C0.943771 9.0289 1.34078 9.15376 1.43087 9.17157C1.52113 9.18938 1.82788 9.11813 1.66552 9.08251C1.53552 9.0539 1.44303 8.93984 1.41289 8.8864C1.25412 8.52998 1.32263 8.31006 1.37675 8.24481C1.3949 8.28043 1.35157 8.28403 1.46701 8.51217C1.61139 8.79734 1.99025 8.90421 2.09473 8.92202C2.17814 8.93624 2.31242 8.83296 2.36911 8.77952C2.36311 8.78535 2.30779 8.76514 2.13464 8.63685C1.96131 8.50857 1.97826 8.25063 2.00823 8.13776C2.00224 8.10813 2.00463 8.07713 2.06235 8.1912C2.13463 8.33387 2.38709 8.51217 2.62174 8.5656C2.80928 8.60842 2.94048 8.50018 2.98261 8.44075C2.95846 8.42893 2.88875 8.38371 2.80208 8.29825C2.71559 8.21261 2.69384 8.00109 2.69384 7.90603C2.72398 7.94765 2.83103 8.05589 3.01857 8.15557C3.20629 8.25543 3.37345 8.221 3.43357 8.1912C4.50403 7.43081 6.89038 5.86712 7.87195 5.69602C9.09878 5.48213 10.0911 6.17725 10.2896 6.6763C10.488 7.17536 10.3381 7.84848 10.1578 8.02678C9.97399 8.20833 9.35141 8.72592 8.68378 8.52998C8.01633 8.33387 7.85396 7.76353 7.94405 7.35359C8.01359 7.03824 8.29979 6.93933 8.45 6.92691C8.45599 6.91763 8.46233 6.91914 8.4673 6.92583C8.46182 6.92605 8.45599 6.92641 8.45 6.92691C8.43475 6.95056 8.42088 7.04418 8.43133 7.30012C8.44931 7.74572 8.93642 7.90603 9.24317 7.79916C9.54992 7.69223 9.91062 6.9793 9.04466 6.58719C8.1787 6.19508 6.87959 6.83672 6.23012 7.19317C5.71048 7.47834 4.3778 8.32205 3.77646 8.7081C3.13299 9.09433 1.65113 9.82755 0.871662 9.67066Z" fill="url(#paint1_linear_256_2068)"/>
<g filter="url(#filter1_i_256_2068)">
<path d="M17.2673 6.69041C17.1677 6.69041 17.0869 6.77021 17.0869 6.86864C17.0869 6.96708 17.1677 7.04688 17.2673 7.04688C17.367 7.04688 17.4478 6.96708 17.4478 6.86864C17.4478 6.77021 17.367 6.69041 17.2673 6.69041Z" fill="white"/>
</g>
<g filter="url(#filter2_i_256_2068)">
<path d="M6.22534 6.69041C6.32499 6.69041 6.40576 6.77021 6.40576 6.86864C6.40576 6.96708 6.32499 7.04688 6.22534 7.04688C6.1257 7.04688 6.04492 6.96708 6.04492 6.86864C6.04492 6.77021 6.1257 6.69041 6.22534 6.69041Z" fill="white"/>
</g>
<g filter="url(#filter3_i_256_2068)">
<path d="M16.5457 6.33397C16.446 6.33397 16.3652 6.41376 16.3652 6.5122C16.3652 6.61063 16.446 6.69043 16.5457 6.69043C16.6453 6.69043 16.7261 6.61063 16.7261 6.5122C16.7261 6.41376 16.6453 6.33397 16.5457 6.33397Z" fill="white"/>
</g>
<g filter="url(#filter4_i_256_2068)">
<path d="M6.94751 6.33397C7.04715 6.33397 7.12793 6.41376 7.12793 6.5122C7.12793 6.61063 7.04715 6.69043 6.94751 6.69043C6.84787 6.69043 6.76709 6.61063 6.76709 6.5122C6.76709 6.41376 6.84787 6.33397 6.94751 6.33397Z" fill="white"/>
</g>
<g filter="url(#filter5_i_256_2068)">
<path d="M15.824 5.97752C15.7243 5.97752 15.6436 6.05732 15.6436 6.15575C15.6436 6.25419 15.7243 6.33398 15.824 6.33398C15.9236 6.33398 16.0044 6.25419 16.0044 6.15575C16.0044 6.05732 15.9236 5.97752 15.824 5.97752Z" fill="white"/>
</g>
<g filter="url(#filter6_i_256_2068)">
<path d="M7.6687 5.97752C7.76835 5.97752 7.84912 6.05732 7.84912 6.15575C7.84912 6.25419 7.76835 6.33398 7.6687 6.33398C7.56906 6.33398 7.48828 6.25419 7.48828 6.15575C7.48828 6.05732 7.56906 5.97752 7.6687 5.97752Z" fill="white"/>
</g>
<g filter="url(#filter7_i_256_2068)">
<path d="M15.1023 5.83494C15.0027 5.83494 14.9219 5.91474 14.9219 6.01317C14.9219 6.11161 15.0027 6.19141 15.1023 6.19141C15.2019 6.19141 15.2827 6.11161 15.2827 6.01317C15.2827 5.91474 15.2019 5.83494 15.1023 5.83494Z" fill="white"/>
</g>
<g filter="url(#filter8_i_256_2068)">
<path d="M14.3806 6.04881C14.281 6.04881 14.2002 6.12861 14.2002 6.22704C14.2002 6.32548 14.281 6.40527 14.3806 6.40527C14.4803 6.40527 14.561 6.32548 14.561 6.22704C14.561 6.12861 14.4803 6.04881 14.3806 6.04881Z" fill="white"/>
</g>
<g filter="url(#filter9_i_256_2068)">
<path d="M13.6584 6.40525C13.5588 6.40525 13.478 6.48505 13.478 6.58349C13.478 6.68192 13.5588 6.76172 13.6584 6.76172C13.7581 6.76172 13.8389 6.68192 13.8389 6.58349C13.8389 6.48505 13.7581 6.40525 13.6584 6.40525Z" fill="white"/>
</g>
<g filter="url(#filter10_i_256_2068)">
<path d="M13.2976 7.11717C13.198 7.11717 13.1172 7.19697 13.1172 7.2954C13.1172 7.39384 13.198 7.47363 13.2976 7.47363C13.3973 7.47363 13.478 7.39384 13.478 7.2954C13.478 7.19697 13.3973 7.11717 13.2976 7.11717Z" fill="white"/>
</g>
<g filter="url(#filter11_i_256_2068)">
<path d="M12.7566 7.47459C12.6569 7.47459 12.5762 7.55439 12.5762 7.65282C12.5762 7.75126 12.6569 7.83105 12.7566 7.83105C12.8562 7.83105 12.937 7.75126 12.937 7.65282C12.937 7.55439 12.8562 7.47459 12.7566 7.47459Z" fill="white"/>
</g>
<g filter="url(#filter12_i_256_2068)">
<path d="M12.0349 7.47459C11.9353 7.47459 11.8545 7.55439 11.8545 7.65282C11.8545 7.75126 11.9353 7.83105 12.0349 7.83105C12.1346 7.83105 12.2153 7.75126 12.2153 7.65282C12.2153 7.55439 12.1346 7.47459 12.0349 7.47459Z" fill="white"/>
</g>
<g filter="url(#filter13_i_256_2068)">
<path d="M10.05 7.11717C9.9504 7.11717 9.86963 7.19697 9.86963 7.2954C9.86963 7.39384 9.9504 7.47363 10.05 7.47363C10.1497 7.47363 10.2305 7.39384 10.2305 7.2954C10.2305 7.19697 10.1497 7.11717 10.05 7.11717Z" fill="white"/>
</g>
<g filter="url(#filter14_i_256_2068)">
<path d="M9.83423 6.40525C9.73458 6.40525 9.6538 6.48505 9.6538 6.58349C9.6538 6.68192 9.73458 6.76172 9.83423 6.76172C9.93387 6.76172 10.0146 6.68192 10.0146 6.58349C10.0146 6.48505 9.93387 6.40525 9.83423 6.40525Z" fill="white"/>
</g>
<g filter="url(#filter15_i_256_2068)">
<path d="M9.11206 6.04881C9.01242 6.04881 8.93164 6.12861 8.93164 6.22704C8.93164 6.32548 9.01242 6.40527 9.11206 6.40527C9.2117 6.40527 9.29248 6.32548 9.29248 6.22704C9.29248 6.12861 9.2117 6.04881 9.11206 6.04881Z" fill="white"/>
</g>
<g filter="url(#filter16_i_256_2068)">
<path d="M8.39038 5.83494C8.29073 5.83494 8.20995 5.91474 8.20995 6.01317C8.20995 6.11161 8.29073 6.19141 8.39038 6.19141C8.49002 6.19141 8.5708 6.11161 8.5708 6.01317C8.5708 5.91474 8.49002 5.83494 8.39038 5.83494Z" fill="white"/>
</g>
<g filter="url(#filter17_i_256_2068)">
<path d="M12.353 12.6097C12.3741 12.5888 12.4084 12.5888 12.4295 12.6097C12.4506 12.6305 12.4506 12.6644 12.4295 12.6853L12.1536 12.9578C12.1325 12.9787 12.0982 12.9787 12.0771 12.9578C12.056 12.9369 12.056 12.903 12.0771 12.8822L12.353 12.6097Z" fill="url(#paint2_linear_256_2068)"/>
<path d="M12.353 12.2532C12.3741 12.2323 12.4084 12.2323 12.4295 12.2532C12.4506 12.2741 12.4506 12.3079 12.4295 12.3288L12.1536 12.6013C12.1325 12.6222 12.0982 12.6222 12.0771 12.6013C12.056 12.5805 12.056 12.5466 12.0771 12.5257L12.353 12.2532Z" fill="url(#paint3_linear_256_2068)"/>
<path d="M12.353 11.8968C12.3741 11.8759 12.4084 11.8759 12.4295 11.8968C12.4506 11.9176 12.4506 11.9515 12.4295 11.9724L12.1536 12.2449C12.1325 12.2658 12.0982 12.2658 12.0771 12.2449C12.056 12.224 12.056 12.1902 12.0771 12.1693L12.353 11.8968Z" fill="url(#paint4_linear_256_2068)"/>
<path d="M12.353 11.5403C12.3741 11.5194 12.4084 11.5194 12.4295 11.5403C12.4506 11.5612 12.4506 11.5951 12.4295 11.6159L12.1536 11.8884C12.1325 11.9093 12.0982 11.9093 12.0771 11.8884C12.056 11.8676 12.056 11.8337 12.0771 11.8128L12.353 11.5403Z" fill="url(#paint5_linear_256_2068)"/>
<path d="M12.5509 12.6145C12.5297 12.5937 12.4954 12.5937 12.4743 12.6145C12.4532 12.6354 12.4532 12.6693 12.4743 12.6902L12.7502 12.9627C12.7713 12.9835 12.8056 12.9835 12.8267 12.9627C12.8479 12.9418 12.8479 12.9079 12.8267 12.887L12.5509 12.6145Z" fill="url(#paint6_linear_256_2068)"/>
<path d="M12.5509 12.2493C12.5297 12.2284 12.4954 12.2284 12.4743 12.2493C12.4532 12.2702 12.4532 12.304 12.4743 12.3249L12.7502 12.5974C12.7713 12.6183 12.8056 12.6183 12.8267 12.5974C12.8479 12.5766 12.8479 12.5427 12.8267 12.5218L12.5509 12.2493Z" fill="url(#paint7_linear_256_2068)"/>
<path d="M12.5509 11.8929C12.5297 11.872 12.4954 11.872 12.4743 11.8929C12.4532 11.9137 12.4532 11.9476 12.4743 11.9685L12.7502 12.241C12.7713 12.2619 12.8056 12.2619 12.8267 12.241C12.8479 12.2201 12.8479 12.1863 12.8267 12.1654L12.5509 11.8929Z" fill="url(#paint8_linear_256_2068)"/>
<path d="M12.5509 11.5354C12.5297 11.5146 12.4954 11.5146 12.4743 11.5354C12.4532 11.5563 12.4532 11.5902 12.4743 11.6111L12.7502 11.8836C12.7713 11.9044 12.8056 11.9044 12.8267 11.8836C12.8479 11.8627 12.8479 11.8288 12.8267 11.8079L12.5509 11.5354Z" fill="url(#paint9_linear_256_2068)"/>
<path d="M12.4499 3.23242H12.4499C12.5196 3.23242 12.5762 3.28897 12.5762 3.35872V12.7307C12.5762 12.8005 12.5196 12.857 12.4499 12.857C12.3801 12.857 12.3236 12.8005 12.3236 12.7307V3.35872C12.3236 3.28897 12.3801 3.23242 12.4499 3.23242Z" fill="url(#paint10_linear_256_2068)"/>
<path d="M12.6259 3.10427C12.5668 2.96524 12.3697 2.96524 12.3106 3.10427L12.1945 3.37741C12.1465 3.49037 12.2294 3.61567 12.3522 3.61567H12.5843C12.7071 3.61567 12.79 3.49037 12.742 3.37741L12.6259 3.10427Z" fill="url(#paint11_linear_256_2068)"/>
<path d="M11.4867 12.6097C11.5079 12.5888 11.5422 12.5888 11.5633 12.6097C11.5844 12.6305 11.5844 12.6644 11.5633 12.6853L11.2874 12.9578C11.2663 12.9787 11.232 12.9787 11.2109 12.9578C11.1897 12.9369 11.1897 12.903 11.2109 12.8822L11.4867 12.6097Z" fill="url(#paint12_linear_256_2068)"/>
<path d="M11.4867 12.2532C11.5079 12.2323 11.5422 12.2323 11.5633 12.2532C11.5844 12.2741 11.5844 12.3079 11.5633 12.3288L11.2874 12.6013C11.2663 12.6222 11.232 12.6222 11.2109 12.6013C11.1897 12.5805 11.1897 12.5466 11.2109 12.5257L11.4867 12.2532Z" fill="url(#paint13_linear_256_2068)"/>
<path d="M11.4867 11.8968C11.5079 11.8759 11.5422 11.8759 11.5633 11.8968C11.5844 11.9176 11.5844 11.9515 11.5633 11.9724L11.2874 12.2449C11.2663 12.2658 11.232 12.2658 11.2109 12.2449C11.1897 12.224 11.1897 12.1902 11.2109 12.1693L11.4867 11.8968Z" fill="url(#paint14_linear_256_2068)"/>
<path d="M11.4867 11.5403C11.5079 11.5194 11.5422 11.5194 11.5633 11.5403C11.5844 11.5612 11.5844 11.5951 11.5633 11.6159L11.2874 11.8884C11.2663 11.9093 11.232 11.9093 11.2109 11.8884C11.1897 11.8676 11.1897 11.8337 11.2109 11.8128L11.4867 11.5403Z" fill="url(#paint15_linear_256_2068)"/>
<path d="M11.6846 12.6145C11.6635 12.5937 11.6292 12.5937 11.6081 12.6145C11.587 12.6354 11.587 12.6693 11.6081 12.6902L11.884 12.9627C11.9051 12.9835 11.9394 12.9835 11.9605 12.9627C11.9816 12.9418 11.9816 12.9079 11.9605 12.887L11.6846 12.6145Z" fill="url(#paint16_linear_256_2068)"/>
<path d="M11.6846 12.2493C11.6635 12.2284 11.6292 12.2284 11.6081 12.2493C11.587 12.2702 11.587 12.304 11.6081 12.3249L11.884 12.5974C11.9051 12.6183 11.9394 12.6183 11.9605 12.5974C11.9816 12.5766 11.9816 12.5427 11.9605 12.5218L11.6846 12.2493Z" fill="url(#paint17_linear_256_2068)"/>
<path d="M11.6846 11.8929C11.6635 11.872 11.6292 11.872 11.6081 11.8929C11.587 11.9137 11.587 11.9476 11.6081 11.9685L11.884 12.241C11.9051 12.2619 11.9394 12.2619 11.9605 12.241C11.9816 12.2201 11.9816 12.1863 11.9605 12.1654L11.6846 11.8929Z" fill="url(#paint18_linear_256_2068)"/>
<path d="M11.6846 11.5354C11.6635 11.5146 11.6292 11.5146 11.6081 11.5354C11.587 11.5563 11.587 11.5902 11.6081 11.6111L11.884 11.8836C11.9051 11.9044 11.9394 11.9044 11.9605 11.8836C11.9816 11.8627 11.9816 11.8288 11.9605 11.8079L11.6846 11.5354Z" fill="url(#paint19_linear_256_2068)"/>
<path d="M11.5842 3.23242H11.5842C11.6539 3.23242 11.7104 3.28897 11.7104 3.35872V12.7307C11.7104 12.8005 11.6539 12.857 11.5842 12.857C11.5144 12.857 11.4579 12.8005 11.4579 12.7307V3.35872C11.4579 3.28897 11.5144 3.23242 11.5842 3.23242Z" fill="url(#paint20_linear_256_2068)"/>
<path d="M11.7596 3.10427C11.7005 2.96524 11.5036 2.96524 11.4445 3.10427L11.3283 3.37741C11.2802 3.49037 11.3631 3.61567 11.4859 3.61567H11.7182C11.8408 3.61567 11.9237 3.49037 11.8757 3.37741L11.7596 3.10427Z" fill="url(#paint21_linear_256_2068)"/>
<path d="M10.6928 12.6097C10.7139 12.5888 10.7482 12.5888 10.7693 12.6097C10.7905 12.6305 10.7905 12.6644 10.7693 12.6853L10.4935 12.9578C10.4723 12.9787 10.4381 12.9787 10.4169 12.9578C10.3958 12.9369 10.3958 12.903 10.4169 12.8822L10.6928 12.6097Z" fill="url(#paint22_linear_256_2068)"/>
<path d="M10.6928 12.2532C10.7139 12.2323 10.7482 12.2323 10.7693 12.2532C10.7905 12.2741 10.7905 12.3079 10.7693 12.3288L10.4935 12.6013C10.4723 12.6222 10.4381 12.6222 10.4169 12.6013C10.3958 12.5805 10.3958 12.5466 10.4169 12.5257L10.6928 12.2532Z" fill="url(#paint23_linear_256_2068)"/>
<path d="M10.6928 11.8968C10.7139 11.8759 10.7482 11.8759 10.7693 11.8968C10.7905 11.9176 10.7905 11.9515 10.7693 11.9724L10.4935 12.2449C10.4723 12.2658 10.4381 12.2658 10.4169 12.2449C10.3958 12.224 10.3958 12.1902 10.4169 12.1693L10.6928 11.8968Z" fill="url(#paint24_linear_256_2068)"/>
<path d="M10.6928 11.5403C10.7139 11.5194 10.7482 11.5194 10.7693 11.5403C10.7905 11.5612 10.7905 11.5951 10.7693 11.6159L10.4935 11.8884C10.4723 11.9093 10.4381 11.9093 10.4169 11.8884C10.3958 11.8676 10.3958 11.8337 10.4169 11.8128L10.6928 11.5403Z" fill="url(#paint25_linear_256_2068)"/>
<path d="M10.8907 12.6145C10.8696 12.5937 10.8353 12.5937 10.8142 12.6145C10.793 12.6354 10.793 12.6693 10.8142 12.6902L11.09 12.9627C11.1111 12.9835 11.1454 12.9835 11.1666 12.9627C11.1877 12.9418 11.1877 12.9079 11.1666 12.887L10.8907 12.6145Z" fill="url(#paint26_linear_256_2068)"/>
<path d="M10.8907 12.2493C10.8696 12.2284 10.8353 12.2284 10.8142 12.2493C10.793 12.2702 10.793 12.304 10.8142 12.3249L11.09 12.5974C11.1111 12.6183 11.1454 12.6183 11.1666 12.5974C11.1877 12.5766 11.1877 12.5427 11.1666 12.5218L10.8907 12.2493Z" fill="url(#paint27_linear_256_2068)"/>
<path d="M10.8907 11.8929C10.8696 11.872 10.8353 11.872 10.8142 11.8929C10.793 11.9137 10.793 11.9476 10.8142 11.9685L11.09 12.241C11.1111 12.2619 11.1454 12.2619 11.1666 12.241C11.1877 12.2201 11.1877 12.1863 11.1666 12.1654L10.8907 11.8929Z" fill="url(#paint28_linear_256_2068)"/>
<path d="M10.8907 11.5354C10.8696 11.5146 10.8353 11.5146 10.8142 11.5354C10.793 11.5563 10.793 11.5902 10.8142 11.6111L11.09 11.8836C11.1111 11.9044 11.1454 11.9044 11.1666 11.8836C11.1877 11.8627 11.1877 11.8288 11.1666 11.8079L10.8907 11.5354Z" fill="url(#paint29_linear_256_2068)"/>
<path d="M10.7902 3.23242H10.7902C10.86 3.23242 10.9165 3.28897 10.9165 3.35872V12.7307C10.9165 12.8005 10.86 12.857 10.7902 12.857C10.7205 12.857 10.6639 12.8005 10.6639 12.7307V3.35872C10.6639 3.28897 10.7205 3.23242 10.7902 3.23242Z" fill="url(#paint30_linear_256_2068)"/>
<path d="M10.9656 3.10427C10.9065 2.96524 10.7095 2.96524 10.6504 3.10427L10.5343 3.37741C10.4864 3.49037 10.5692 3.61567 10.6919 3.61567H10.9241C11.0469 3.61567 11.1298 3.49037 11.0817 3.37741L10.9656 3.10427Z" fill="url(#paint31_linear_256_2068)"/>
</g>
<g filter="url(#filter18_i_256_2068)">
<path d="M11.3132 7.47459C11.2136 7.47459 11.1328 7.55439 11.1328 7.65282C11.1328 7.75126 11.2136 7.83105 11.3132 7.83105C11.4129 7.83105 11.4937 7.75126 11.4937 7.65282C11.4937 7.55439 11.4129 7.47459 11.3132 7.47459Z" fill="white"/>
</g>
<g filter="url(#filter19_i_256_2068)">
<path d="M10.5916 7.47459C10.4919 7.47459 10.4111 7.55439 10.4111 7.65282C10.4111 7.75126 10.4919 7.83105 10.5916 7.83105C10.6912 7.83105 10.772 7.75126 10.772 7.65282C10.772 7.55439 10.6912 7.47459 10.5916 7.47459Z" fill="white"/>
</g>
<defs>
<filter id="filter0_d_256_2068" x="2.83398" y="0.295898" width="17.6445" height="14.7842" filterUnits="userSpaceOnUse" color-interpolation-filters="sRGB">
<feFlood flood-opacity="0" result="BackgroundImageFix"/>
<feColorMatrix in="SourceAlpha" type="matrix" values="0 0 0 0 0 0 0 0 0 0 0 0 0 0 0 0 0 0 127 0" result="hardAlpha"/>
<feOffset/>
<feGaussianBlur stdDeviation="3.5"/>
<feColorMatrix type="matrix" values="0 0 0 0 0 0 0 0 0 0 0 0 0 0 0 0 0 0 0.25 0"/>
<feBlend mode="normal" in2="BackgroundImageFix" result="effect1_dropShadow_256_2068"/>
<feBlend mode="normal" in="SourceGraphic" in2="effect1_dropShadow_256_2068" result="shape"/>
</filter>
<filter id="filter1_i_256_2068" x="17.0869" y="6.69043" width="0.36084" height="2.35645" filterUnits="userSpaceOnUse" color-interpolation-filters="sRGB">
<feFlood flood-opacity="0" result="BackgroundImageFix"/>
<feBlend mode="normal" in="SourceGraphic" in2="BackgroundImageFix" result="shape"/>
<feColorMatrix in="SourceAlpha" type="matrix" values="0 0 0 0 0 0 0 0 0 0 0 0 0 0 0 0 0 0 127 0" result="hardAlpha"/>
<feOffset dy="2"/>
<feGaussianBlur stdDeviation="2.5"/>
<feComposite in2="hardAlpha" operator="arithmetic" k2="-1" k3="1"/>
<feColorMatrix type="matrix" values="0 0 0 0 0 0 0 0 0 0 0 0 0 0 0 0 0 0 0.25 0"/>
<feBlend mode="normal" in2="shape" result="effect1_innerShadow_256_2068"/>
</filter>
<filter id="filter2_i_256_2068" x="6.04492" y="6.69043" width="0.36084" height="2.35645" filterUnits="userSpaceOnUse" color-interpolation-filters="sRGB">
<feFlood flood-opacity="0" result="BackgroundImageFix"/>
<feBlend mode="normal" in="SourceGraphic" in2="BackgroundImageFix" result="shape"/>
<feColorMatrix in="SourceAlpha" type="matrix" values="0 0 0 0 0 0 0 0 0 0 0 0 0 0 0 0 0 0 127 0" result="hardAlpha"/>
<feOffset dy="2"/>
<feGaussianBlur stdDeviation="2.5"/>
<feComposite in2="hardAlpha" operator="arithmetic" k2="-1" k3="1"/>
<feColorMatrix type="matrix" values="0 0 0 0 0 0 0 0 0 0 0 0 0 0 0 0 0 0 0.25 0"/>
<feBlend mode="normal" in2="shape" result="effect1_innerShadow_256_2068"/>
</filter>
<filter id="filter3_i_256_2068" x="16.3652" y="6.33398" width="0.36084" height="2.35645" filterUnits="userSpaceOnUse" color-interpolation-filters="sRGB">
<feFlood flood-opacity="0" result="BackgroundImageFix"/>
<feBlend mode="normal" in="SourceGraphic" in2="BackgroundImageFix" result="shape"/>
<feColorMatrix in="SourceAlpha" type="matrix" values="0 0 0 0 0 0 0 0 0 0 0 0 0 0 0 0 0 0 127 0" result="hardAlpha"/>
<feOffset dy="2"/>
<feGaussianBlur stdDeviation="2.5"/>
<feComposite in2="hardAlpha" operator="arithmetic" k2="-1" k3="1"/>
<feColorMatrix type="matrix" values="0 0 0 0 0 0 0 0 0 0 0 0 0 0 0 0 0 0 0.25 0"/>
<feBlend mode="normal" in2="shape" result="effect1_innerShadow_256_2068"/>
</filter>
<filter id="filter4_i_256_2068" x="6.76709" y="6.33398" width="0.36084" height="2.35645" filterUnits="userSpaceOnUse" color-interpolation-filters="sRGB">
<feFlood flood-opacity="0" result="BackgroundImageFix"/>
<feBlend mode="normal" in="SourceGraphic" in2="BackgroundImageFix" result="shape"/>
<feColorMatrix in="SourceAlpha" type="matrix" values="0 0 0 0 0 0 0 0 0 0 0 0 0 0 0 0 0 0 127 0" result="hardAlpha"/>
<feOffset dy="2"/>
<feGaussianBlur stdDeviation="2.5"/>
<feComposite in2="hardAlpha" operator="arithmetic" k2="-1" k3="1"/>
<feColorMatrix type="matrix" values="0 0 0 0 0 0 0 0 0 0 0 0 0 0 0 0 0 0 0.25 0"/>
<feBlend mode="normal" in2="shape" result="effect1_innerShadow_256_2068"/>
</filter>
<filter id="filter5_i_256_2068" x="15.6436" y="5.97754" width="0.36084" height="2.35645" filterUnits="userSpaceOnUse" color-interpolation-filters="sRGB">
<feFlood flood-opacity="0" result="BackgroundImageFix"/>
<feBlend mode="normal" in="SourceGraphic" in2="BackgroundImageFix" result="shape"/>
<feColorMatrix in="SourceAlpha" type="matrix" values="0 0 0 0 0 0 0 0 0 0 0 0 0 0 0 0 0 0 127 0" result="hardAlpha"/>
<feOffset dy="2"/>
<feGaussianBlur stdDeviation="2.5"/>
<feComposite in2="hardAlpha" operator="arithmetic" k2="-1" k3="1"/>
<feColorMatrix type="matrix" values="0 0 0 0 0 0 0 0 0 0 0 0 0 0 0 0 0 0 0.25 0"/>
<feBlend mode="normal" in2="shape" result="effect1_innerShadow_256_2068"/>
</filter>
<filter id="filter6_i_256_2068" x="7.48828" y="5.97754" width="0.36084" height="2.35645" filterUnits="userSpaceOnUse" color-interpolation-filters="sRGB">
<feFlood flood-opacity="0" result="BackgroundImageFix"/>
<feBlend mode="normal" in="SourceGraphic" in2="BackgroundImageFix" result="shape"/>
<feColorMatrix in="SourceAlpha" type="matrix" values="0 0 0 0 0 0 0 0 0 0 0 0 0 0 0 0 0 0 127 0" result="hardAlpha"/>
<feOffset dy="2"/>
<feGaussianBlur stdDeviation="2.5"/>
<feComposite in2="hardAlpha" operator="arithmetic" k2="-1" k3="1"/>
<feColorMatrix type="matrix" values="0 0 0 0 0 0 0 0 0 0 0 0 0 0 0 0 0 0 0.25 0"/>
<feBlend mode="normal" in2="shape" result="effect1_innerShadow_256_2068"/>
</filter>
<filter id="filter7_i_256_2068" x="14.9219" y="5.83496" width="0.36084" height="2.35645" filterUnits="userSpaceOnUse" color-interpolation-filters="sRGB">
<feFlood flood-opacity="0" result="BackgroundImageFix"/>
<feBlend mode="normal" in="SourceGraphic" in2="BackgroundImageFix" result="shape"/>
<feColorMatrix in="SourceAlpha" type="matrix" values="0 0 0 0 0 0 0 0 0 0 0 0 0 0 0 0 0 0 127 0" result="hardAlpha"/>
<feOffset dy="2"/>
<feGaussianBlur stdDeviation="2.5"/>
<feComposite in2="hardAlpha" operator="arithmetic" k2="-1" k3="1"/>
<feColorMatrix type="matrix" values="0 0 0 0 0 0 0 0 0 0 0 0 0 0 0 0 0 0 0.25 0"/>
<feBlend mode="normal" in2="shape" result="effect1_innerShadow_256_2068"/>
</filter>
<filter id="filter8_i_256_2068" x="14.2002" y="6.04883" width="0.36084" height="2.35645" filterUnits="userSpaceOnUse" color-interpolation-filters="sRGB">
<feFlood flood-opacity="0" result="BackgroundImageFix"/>
<feBlend mode="normal" in="SourceGraphic" in2="BackgroundImageFix" result="shape"/>
<feColorMatrix in="SourceAlpha" type="matrix" values="0 0 0 0 0 0 0 0 0 0 0 0 0 0 0 0 0 0 127 0" result="hardAlpha"/>
<feOffset dy="2"/>
<feGaussianBlur stdDeviation="2.5"/>
<feComposite in2="hardAlpha" operator="arithmetic" k2="-1" k3="1"/>
<feColorMatrix type="matrix" values="0 0 0 0 0 0 0 0 0 0 0 0 0 0 0 0 0 0 0.25 0"/>
<feBlend mode="normal" in2="shape" result="effect1_innerShadow_256_2068"/>
</filter>
<filter id="filter9_i_256_2068" x="13.478" y="6.40527" width="0.36084" height="2.35645" filterUnits="userSpaceOnUse" color-interpolation-filters="sRGB">
<feFlood flood-opacity="0" result="BackgroundImageFix"/>
<feBlend mode="normal" in="SourceGraphic" in2="BackgroundImageFix" result="shape"/>
<feColorMatrix in="SourceAlpha" type="matrix" values="0 0 0 0 0 0 0 0 0 0 0 0 0 0 0 0 0 0 127 0" result="hardAlpha"/>
<feOffset dy="2"/>
<feGaussianBlur stdDeviation="2.5"/>
<feComposite in2="hardAlpha" operator="arithmetic" k2="-1" k3="1"/>
<feColorMatrix type="matrix" values="0 0 0 0 0 0 0 0 0 0 0 0 0 0 0 0 0 0 0.25 0"/>
<feBlend mode="normal" in2="shape" result="effect1_innerShadow_256_2068"/>
</filter>
<filter id="filter10_i_256_2068" x="13.1172" y="7.11719" width="0.36084" height="2.35645" filterUnits="userSpaceOnUse" color-interpolation-filters="sRGB">
<feFlood flood-opacity="0" result="BackgroundImageFix"/>
<feBlend mode="normal" in="SourceGraphic" in2="BackgroundImageFix" result="shape"/>
<feColorMatrix in="SourceAlpha" type="matrix" values="0 0 0 0 0 0 0 0 0 0 0 0 0 0 0 0 0 0 127 0" result="hardAlpha"/>
<feOffset dy="2"/>
<feGaussianBlur stdDeviation="2.5"/>
<feComposite in2="hardAlpha" operator="arithmetic" k2="-1" k3="1"/>
<feColorMatrix type="matrix" values="0 0 0 0 0 0 0 0 0 0 0 0 0 0 0 0 0 0 0.25 0"/>
<feBlend mode="normal" in2="shape" result="effect1_innerShadow_256_2068"/>
</filter>
<filter id="filter11_i_256_2068" x="12.5762" y="7.47461" width="0.36084" height="2.35645" filterUnits="userSpaceOnUse" color-interpolation-filters="sRGB">
<feFlood flood-opacity="0" result="BackgroundImageFix"/>
<feBlend mode="normal" in="SourceGraphic" in2="BackgroundImageFix" result="shape"/>
<feColorMatrix in="SourceAlpha" type="matrix" values="0 0 0 0 0 0 0 0 0 0 0 0 0 0 0 0 0 0 127 0" result="hardAlpha"/>
<feOffset dy="2"/>
<feGaussianBlur stdDeviation="2.5"/>
<feComposite in2="hardAlpha" operator="arithmetic" k2="-1" k3="1"/>
<feColorMatrix type="matrix" values="0 0 0 0 0 0 0 0 0 0 0 0 0 0 0 0 0 0 0.25 0"/>
<feBlend mode="normal" in2="shape" result="effect1_innerShadow_256_2068"/>
</filter>
<filter id="filter12_i_256_2068" x="11.8545" y="7.47461" width="0.36084" height="2.35645" filterUnits="userSpaceOnUse" color-interpolation-filters="sRGB">
<feFlood flood-opacity="0" result="BackgroundImageFix"/>
<feBlend mode="normal" in="SourceGraphic" in2="BackgroundImageFix" result="shape"/>
<feColorMatrix in="SourceAlpha" type="matrix" values="0 0 0 0 0 0 0 0 0 0 0 0 0 0 0 0 0 0 127 0" result="hardAlpha"/>
<feOffset dy="2"/>
<feGaussianBlur stdDeviation="2.5"/>
<feComposite in2="hardAlpha" operator="arithmetic" k2="-1" k3="1"/>
<feColorMatrix type="matrix" values="0 0 0 0 0 0 0 0 0 0 0 0 0 0 0 0 0 0 0.25 0"/>
<feBlend mode="normal" in2="shape" result="effect1_innerShadow_256_2068"/>
</filter>
<filter id="filter13_i_256_2068" x="9.86963" y="7.11719" width="0.36084" height="2.35645" filterUnits="userSpaceOnUse" color-interpolation-filters="sRGB">
<feFlood flood-opacity="0" result="BackgroundImageFix"/>
<feBlend mode="normal" in="SourceGraphic" in2="BackgroundImageFix" result="shape"/>
<feColorMatrix in="SourceAlpha" type="matrix" values="0 0 0 0 0 0 0 0 0 0 0 0 0 0 0 0 0 0 127 0" result="hardAlpha"/>
<feOffset dy="2"/>
<feGaussianBlur stdDeviation="2.5"/>
<feComposite in2="hardAlpha" operator="arithmetic" k2="-1" k3="1"/>
<feColorMatrix type="matrix" values="0 0 0 0 0 0 0 0 0 0 0 0 0 0 0 0 0 0 0.25 0"/>
<feBlend mode="normal" in2="shape" result="effect1_innerShadow_256_2068"/>
</filter>
<filter id="filter14_i_256_2068" x="9.65381" y="6.40527" width="0.36084" height="2.35645" filterUnits="userSpaceOnUse" color-interpolation-filters="sRGB">
<feFlood flood-opacity="0" result="BackgroundImageFix"/>
<feBlend mode="normal" in="SourceGraphic" in2="BackgroundImageFix" result="shape"/>
<feColorMatrix in="SourceAlpha" type="matrix" values="0 0 0 0 0 0 0 0 0 0 0 0 0 0 0 0 0 0 127 0" result="hardAlpha"/>
<feOffset dy="2"/>
<feGaussianBlur stdDeviation="2.5"/>
<feComposite in2="hardAlpha" operator="arithmetic" k2="-1" k3="1"/>
<feColorMatrix type="matrix" values="0 0 0 0 0 0 0 0 0 0 0 0 0 0 0 0 0 0 0.25 0"/>
<feBlend mode="normal" in2="shape" result="effect1_innerShadow_256_2068"/>
</filter>
<filter id="filter15_i_256_2068" x="8.93164" y="6.04883" width="0.36084" height="2.35645" filterUnits="userSpaceOnUse" color-interpolation-filters="sRGB">
<feFlood flood-opacity="0" result="BackgroundImageFix"/>
<feBlend mode="normal" in="SourceGraphic" in2="BackgroundImageFix" result="shape"/>
<feColorMatrix in="SourceAlpha" type="matrix" values="0 0 0 0 0 0 0 0 0 0 0 0 0 0 0 0 0 0 127 0" result="hardAlpha"/>
<feOffset dy="2"/>
<feGaussianBlur stdDeviation="2.5"/>
<feComposite in2="hardAlpha" operator="arithmetic" k2="-1" k3="1"/>
<feColorMatrix type="matrix" values="0 0 0 0 0 0 0 0 0 0 0 0 0 0 0 0 0 0 0.25 0"/>
<feBlend mode="normal" in2="shape" result="effect1_innerShadow_256_2068"/>
</filter>
<filter id="filter16_i_256_2068" x="8.20996" y="5.83496" width="0.36084" height="2.35645" filterUnits="userSpaceOnUse" color-interpolation-filters="sRGB">
<feFlood flood-opacity="0" result="BackgroundImageFix"/>
<feBlend mode="normal" in="SourceGraphic" in2="BackgroundImageFix" result="shape"/>
<feColorMatrix in="SourceAlpha" type="matrix" values="0 0 0 0 0 0 0 0 0 0 0 0 0 0 0 0 0 0 127 0" result="hardAlpha"/>
<feOffset dy="2"/>
<feGaussianBlur stdDeviation="2.5"/>
<feComposite in2="hardAlpha" operator="arithmetic" k2="-1" k3="1"/>
<feColorMatrix type="matrix" values="0 0 0 0 0 0 0 0 0 0 0 0 0 0 0 0 0 0 0.25 0"/>
<feBlend mode="normal" in2="shape" result="effect1_innerShadow_256_2068"/>
</filter>
<filter id="filter17_i_256_2068" x="10.4009" y="3" width="2.44189" height="11.9785" filterUnits="userSpaceOnUse" color-interpolation-filters="sRGB">
<feFlood flood-opacity="0" result="BackgroundImageFix"/>
<feBlend mode="normal" in="SourceGraphic" in2="BackgroundImageFix" result="shape"/>
<feColorMatrix in="SourceAlpha" type="matrix" values="0 0 0 0 0 0 0 0 0 0 0 0 0 0 0 0 0 0 127 0" result="hardAlpha"/>
<feOffset dy="10"/>
<feGaussianBlur stdDeviation="1"/>
<feComposite in2="hardAlpha" operator="arithmetic" k2="-1" k3="1"/>
<feColorMatrix type="matrix" values="0 0 0 0 0 0 0 0 0 0 0 0 0 0 0 0 0 0 0.25 0"/>
<feBlend mode="normal" in2="shape" result="effect1_innerShadow_256_2068"/>
</filter>
<filter id="filter18_i_256_2068" x="11.1328" y="7.47461" width="0.36084" height="2.35645" filterUnits="userSpaceOnUse" color-interpolation-filters="sRGB">
<feFlood flood-opacity="0" result="BackgroundImageFix"/>
<feBlend mode="normal" in="SourceGraphic" in2="BackgroundImageFix" result="shape"/>
<feColorMatrix in="SourceAlpha" type="matrix" values="0 0 0 0 0 0 0 0 0 0 0 0 0 0 0 0 0 0 127 0" result="hardAlpha"/>
<feOffset dy="2"/>
<feGaussianBlur stdDeviation="2.5"/>
<feComposite in2="hardAlpha" operator="arithmetic" k2="-1" k3="1"/>
<feColorMatrix type="matrix" values="0 0 0 0 0 0 0 0 0 0 0 0 0 0 0 0 0 0 0.25 0"/>
<feBlend mode="normal" in2="shape" result="effect1_innerShadow_256_2068"/>
</filter>
<filter id="filter19_i_256_2068" x="10.4111" y="7.47461" width="0.36084" height="2.35645" filterUnits="userSpaceOnUse" color-interpolation-filters="sRGB">
<feFlood flood-opacity="0" result="BackgroundImageFix"/>
<feBlend mode="normal" in="SourceGraphic" in2="BackgroundImageFix" result="shape"/>
<feColorMatrix in="SourceAlpha" type="matrix" values="0 0 0 0 0 0 0 0 0 0 0 0 0 0 0 0 0 0 127 0" result="hardAlpha"/>
<feOffset dy="2"/>
<feGaussianBlur stdDeviation="2.5"/>
<feComposite in2="hardAlpha" operator="arithmetic" k2="-1" k3="1"/>
<feColorMatrix type="matrix" values="0 0 0 0 0 0 0 0 0 0 0 0 0 0 0 0 0 0 0.25 0"/>
<feBlend mode="normal" in2="shape" result="effect1_innerShadow_256_2068"/>
</filter>
<linearGradient id="paint0_linear_256_2068" x1="14.1279" y1="6.81476" x2="20.1965" y2="8.60123" gradientUnits="userSpaceOnUse">
<stop stop-color="#D3582D"/>
<stop offset="1" stop-color="#D3582D"/>
</linearGradient>
<linearGradient id="paint1_linear_256_2068" x1="9.16541" y1="6.81476" x2="3.09685" y2="8.60123" gradientUnits="userSpaceOnUse">
<stop stop-color="#D3582D"/>
<stop offset="1" stop-color="#D3582D"/>
</linearGradient>
<linearGradient id="paint2_linear_256_2068" x1="12.4295" y1="12.6097" x2="12.0814" y2="12.962" gradientUnits="userSpaceOnUse">
<stop stop-color="#FF4707"/>
<stop offset="1" stop-color="#FF4707"/>
</linearGradient>
<linearGradient id="paint3_linear_256_2068" x1="12.4295" y1="12.2532" x2="12.0814" y2="12.6056" gradientUnits="userSpaceOnUse">
<stop stop-color="#FF4707"/>
<stop offset="1" stop-color="#FF4707"/>
</linearGradient>
<linearGradient id="paint4_linear_256_2068" x1="12.4295" y1="11.8968" x2="12.0814" y2="12.2491" gradientUnits="userSpaceOnUse">
<stop stop-color="#FF4707"/>
<stop offset="1" stop-color="#FF4707"/>
</linearGradient>
<linearGradient id="paint5_linear_256_2068" x1="12.4295" y1="11.5403" x2="12.0814" y2="11.8927" gradientUnits="userSpaceOnUse">
<stop stop-color="#FF4707"/>
<stop offset="1" stop-color="#FF4707"/>
</linearGradient>
<linearGradient id="paint6_linear_256_2068" x1="12.4743" y1="12.6145" x2="12.8224" y2="12.9669" gradientUnits="userSpaceOnUse">
<stop stop-color="#FF4707"/>
<stop offset="1" stop-color="#FF4707"/>
</linearGradient>
<linearGradient id="paint7_linear_256_2068" x1="12.4743" y1="12.2493" x2="12.8224" y2="12.6017" gradientUnits="userSpaceOnUse">
<stop stop-color="#FF4707"/>
<stop offset="1" stop-color="#FF4707"/>
</linearGradient>
<linearGradient id="paint8_linear_256_2068" x1="12.4743" y1="11.8929" x2="12.8224" y2="12.2452" gradientUnits="userSpaceOnUse">
<stop stop-color="#FF4707"/>
<stop offset="1" stop-color="#FF4707"/>
</linearGradient>
<linearGradient id="paint9_linear_256_2068" x1="12.4743" y1="11.5354" x2="12.8224" y2="11.8878" gradientUnits="userSpaceOnUse">
<stop stop-color="#FF4707"/>
<stop offset="1" stop-color="#FF4707"/>
</linearGradient>
<linearGradient id="paint10_linear_256_2068" x1="12.4499" y1="3.23242" x2="12.4499" y2="12.857" gradientUnits="userSpaceOnUse">
<stop stop-color="#FF4707"/>
<stop offset="1" stop-color="#FF4707"/>
</linearGradient>
<linearGradient id="paint11_linear_256_2068" x1="12.4683" y1="2.73343" x2="12.4683" y2="3.90977" gradientUnits="userSpaceOnUse">
<stop stop-color="#FF4707"/>
<stop offset="1" stop-color="#FF4707"/>
</linearGradient>
<linearGradient id="paint12_linear_256_2068" x1="11.5633" y1="12.6097" x2="11.2152" y2="12.962" gradientUnits="userSpaceOnUse">
<stop stop-color="#FF4707"/>
<stop offset="1" stop-color="#FF4707"/>
</linearGradient>
<linearGradient id="paint13_linear_256_2068" x1="11.5633" y1="12.2532" x2="11.2152" y2="12.6056" gradientUnits="userSpaceOnUse">
<stop stop-color="#FF4707"/>
<stop offset="1" stop-color="#FF4707"/>
</linearGradient>
<linearGradient id="paint14_linear_256_2068" x1="11.5633" y1="11.8968" x2="11.2152" y2="12.2491" gradientUnits="userSpaceOnUse">
<stop stop-color="#FF4707"/>
<stop offset="1" stop-color="#FF4707"/>
</linearGradient>
<linearGradient id="paint15_linear_256_2068" x1="11.5633" y1="11.5403" x2="11.2152" y2="11.8927" gradientUnits="userSpaceOnUse">
<stop stop-color="#FF4707"/>
<stop offset="1" stop-color="#FF4707"/>
</linearGradient>
<linearGradient id="paint16_linear_256_2068" x1="11.6081" y1="12.6145" x2="11.9562" y2="12.9669" gradientUnits="userSpaceOnUse">
<stop stop-color="#FF4707"/>
<stop offset="1" stop-color="#FF4707"/>
</linearGradient>
<linearGradient id="paint17_linear_256_2068" x1="11.6081" y1="12.2493" x2="11.9562" y2="12.6017" gradientUnits="userSpaceOnUse">
<stop stop-color="#FF4707"/>
<stop offset="1" stop-color="#FF4707"/>
</linearGradient>
<linearGradient id="paint18_linear_256_2068" x1="11.6081" y1="11.8929" x2="11.9562" y2="12.2452" gradientUnits="userSpaceOnUse">
<stop stop-color="#FF4707"/>
<stop offset="1" stop-color="#FF4707"/>
</linearGradient>
<linearGradient id="paint19_linear_256_2068" x1="11.6081" y1="11.5354" x2="11.9562" y2="11.8878" gradientUnits="userSpaceOnUse">
<stop stop-color="#FF4707"/>
<stop offset="1" stop-color="#FF4707"/>
</linearGradient>
<linearGradient id="paint20_linear_256_2068" x1="11.5842" y1="3.23242" x2="11.5842" y2="12.857" gradientUnits="userSpaceOnUse">
<stop stop-color="#FF4707"/>
<stop offset="1" stop-color="#FF4707"/>
</linearGradient>
<linearGradient id="paint21_linear_256_2068" x1="11.602" y1="2.73343" x2="11.602" y2="3.90977" gradientUnits="userSpaceOnUse">
<stop stop-color="#FF4707"/>
<stop offset="1" stop-color="#FF4707"/>
</linearGradient>
<linearGradient id="paint22_linear_256_2068" x1="10.7693" y1="12.6097" x2="10.4212" y2="12.962" gradientUnits="userSpaceOnUse">
<stop stop-color="#FF4707"/>
<stop offset="1" stop-color="#FF4707"/>
</linearGradient>
<linearGradient id="paint23_linear_256_2068" x1="10.7693" y1="12.2532" x2="10.4212" y2="12.6056" gradientUnits="userSpaceOnUse">
<stop stop-color="#FF4707"/>
<stop offset="1" stop-color="#FF4707"/>
</linearGradient>
<linearGradient id="paint24_linear_256_2068" x1="10.7693" y1="11.8968" x2="10.4212" y2="12.2491" gradientUnits="userSpaceOnUse">
<stop stop-color="#FF4707"/>
<stop offset="1" stop-color="#FF4707"/>
</linearGradient>
<linearGradient id="paint25_linear_256_2068" x1="10.7693" y1="11.5403" x2="10.4212" y2="11.8927" gradientUnits="userSpaceOnUse">
<stop stop-color="#FF4707"/>
<stop offset="1" stop-color="#FF4707"/>
</linearGradient>
<linearGradient id="paint26_linear_256_2068" x1="10.8142" y1="12.6145" x2="11.1623" y2="12.9669" gradientUnits="userSpaceOnUse">
<stop stop-color="#FF4707"/>
<stop offset="1" stop-color="#FF4707"/>
</linearGradient>
<linearGradient id="paint27_linear_256_2068" x1="10.8142" y1="12.2493" x2="11.1623" y2="12.6017" gradientUnits="userSpaceOnUse">
<stop stop-color="#FF4707"/>
<stop offset="1" stop-color="#FF4707"/>
</linearGradient>
<linearGradient id="paint28_linear_256_2068" x1="10.8142" y1="11.8929" x2="11.1623" y2="12.2452" gradientUnits="userSpaceOnUse">
<stop stop-color="#FF4707"/>
<stop offset="1" stop-color="#FF4707"/>
</linearGradient>
<linearGradient id="paint29_linear_256_2068" x1="10.8142" y1="11.5354" x2="11.1623" y2="11.8878" gradientUnits="userSpaceOnUse">
<stop stop-color="#FF4707"/>
<stop offset="1" stop-color="#FF4707"/>
</linearGradient>
<linearGradient id="paint30_linear_256_2068" x1="10.7902" y1="3.23242" x2="10.7902" y2="12.857" gradientUnits="userSpaceOnUse">
<stop stop-color="#FF4707"/>
<stop offset="1" stop-color="#FF4707"/>
</linearGradient>
<linearGradient id="paint31_linear_256_2068" x1="10.808" y1="2.73343" x2="10.808" y2="3.90977" gradientUnits="userSpaceOnUse">
<stop stop-color="#FF4707"/>
<stop offset="1" stop-color="#FF4707"/>
</linearGradient>
</defs>
</svg>
