<svg width="18" height="16" viewBox="0 0 18 16" fill="none" xmlns="http://www.w3.org/2000/svg">
<rect x="1" width="16" height="16" fill="#EA4206"/>
<path d="M16.1328 9.15625L9.01923 10.0867L1.68257 9.15625V9.20522L9.01923 10.1112L16.1328 9.20522V9.15625Z" fill="white" fill-opacity="0.5"/>
<g filter="url(#filter0_i_265_861)">
<rect width="2.50339" height="0.538681" transform="matrix(-1 0 0 1 10.2578 7.61523)" fill="white"/>
</g>
<path d="M16.4013 9.24769C16.9367 9.13995 17.021 8.76206 16.9962 8.58658C16.9425 8.66411 16.8053 8.83633 16.6864 8.90489C16.5674 8.97345 16.3972 8.97426 16.327 8.9661C16.3765 8.9457 16.4856 8.87306 16.5252 8.74573C16.5748 8.58658 16.4881 8.42742 16.4881 8.43966C16.4881 8.44946 16.455 8.54169 16.4385 8.58658C16.3517 8.80695 16.0791 8.89265 16.0171 8.90489C15.9552 8.91713 15.7445 8.86816 15.856 8.84368C15.9452 8.82409 16.0089 8.74573 16.0295 8.709C16.1386 8.46415 16.0915 8.31316 16.0543 8.26827C16.0419 8.29275 16.0717 8.2952 15.9923 8.45191C15.8932 8.64779 15.6329 8.72125 15.5612 8.73349C15.5039 8.74328 15.4116 8.67228 15.3727 8.63555C15.3768 8.63963 15.4148 8.62575 15.5338 8.53761C15.6528 8.44946 15.6412 8.27235 15.6206 8.19481C15.6247 8.1744 15.623 8.15318 15.5834 8.23154C15.5338 8.32948 15.3603 8.45191 15.1992 8.48864C15.0703 8.51802 14.9802 8.44374 14.9513 8.40294C14.9679 8.39477 15.0158 8.36376 15.0753 8.30499C15.1347 8.24623 15.1496 8.10095 15.1496 8.03565C15.129 8.06422 15.0554 8.13849 14.9265 8.20705C14.7977 8.27561 14.6828 8.25194 14.6415 8.23154C13.9062 7.70918 12.267 6.63508 11.5928 6.51755C10.7501 6.37064 10.0685 6.84811 9.93216 7.1909C9.79584 7.5337 9.89881 7.99609 10.0227 8.11852C10.149 8.24323 10.5766 8.59882 11.0351 8.46415C11.4937 8.32948 11.6052 7.93771 11.5433 7.65613C11.4956 7.43951 11.2989 7.37157 11.1958 7.36305C11.1916 7.35667 11.1874 7.3577 11.1839 7.3623C11.1877 7.36246 11.1916 7.36271 11.1958 7.36305C11.2063 7.37929 11.2158 7.4436 11.2086 7.6194C11.1962 7.92547 10.8616 8.03565 10.651 7.9622C10.4403 7.88874 10.1924 7.39903 10.7873 7.12969C11.3821 6.86035 12.2744 7.30109 12.7206 7.54594C13.0775 7.74183 13.9929 8.32132 14.406 8.58658C14.8481 8.85184 15.8659 9.35542 16.4013 9.24769Z" fill="white"/>
<path d="M1.59869 9.24769C1.06331 9.13995 0.979037 8.76206 1.00382 8.58658C1.05753 8.66411 1.19468 8.83633 1.31365 8.90489C1.43262 8.97345 1.60282 8.97426 1.67305 8.9661C1.62347 8.9457 1.51442 8.87306 1.47476 8.74573C1.42519 8.58658 1.51194 8.42742 1.51194 8.43966C1.51194 8.44946 1.54499 8.54169 1.56151 8.58658C1.64826 8.80695 1.92091 8.89265 1.98287 8.90489C2.04484 8.91713 2.25552 8.86816 2.14398 8.84368C2.05475 8.82409 1.99113 8.74573 1.97048 8.709C1.86142 8.46415 1.90851 8.31316 1.94569 8.26827C1.95809 8.29275 1.92834 8.2952 2.00766 8.45191C2.1068 8.64779 2.36705 8.72125 2.43877 8.73349C2.49614 8.74328 2.58837 8.67228 2.62731 8.63555C2.62318 8.63963 2.58517 8.62575 2.4662 8.53761C2.34723 8.44946 2.35879 8.27235 2.37945 8.19481C2.37532 8.1744 2.37697 8.15318 2.41663 8.23154C2.4662 8.32948 2.6397 8.45191 2.80081 8.48864C2.9297 8.51802 3.01975 8.44374 3.04867 8.40294C3.03215 8.39477 2.98423 8.36376 2.92474 8.30499C2.86525 8.24623 2.85038 8.10095 2.85038 8.03565C2.87104 8.06422 2.94457 8.13849 3.07346 8.20705C3.20234 8.27561 3.31719 8.25194 3.3585 8.23154C4.09381 7.70918 5.733 6.63508 6.40717 6.51755C7.2499 6.37064 7.93151 6.84811 8.06784 7.1909C8.20416 7.5337 8.10119 7.99609 7.97726 8.11852C7.85102 8.24323 7.4234 8.59882 6.96486 8.46415C6.50632 8.32948 6.39478 7.93771 6.45675 7.65613C6.50441 7.43951 6.70105 7.37157 6.80424 7.36305C6.80837 7.35667 6.81265 7.3577 6.81614 7.3623C6.81234 7.36246 6.80836 7.36271 6.80424 7.36305C6.79373 7.37929 6.78424 7.4436 6.79136 7.6194C6.80375 7.92547 7.13836 8.03565 7.34904 7.9622C7.55972 7.88874 7.80758 7.39903 7.21272 7.12969C6.61786 6.86035 5.72556 7.30109 5.27941 7.54594C4.92249 7.74183 4.00706 8.32132 3.59396 8.58658C3.15194 8.85184 2.13407 9.35542 1.59869 9.24769Z" fill="white"/>
<g filter="url(#filter1_d_265_861)">
<ellipse cx="12.8604" cy="7.31996" rx="0.12393" ry="0.122428" transform="rotate(-180 12.8604 7.31996)" fill="white"/>
</g>
<g filter="url(#filter2_d_265_861)">
<ellipse rx="0.12393" ry="0.122428" transform="matrix(1 0 0 -1 5.27627 7.31996)" fill="#FF4707"/>
</g>
<g filter="url(#filter3_d_265_861)">
<ellipse cx="12.3644" cy="7.07581" rx="0.12393" ry="0.122428" transform="rotate(-180 12.3644 7.07581)" fill="#FF4707"/>
</g>
<g filter="url(#filter4_d_265_861)">
<ellipse rx="0.12393" ry="0.122428" transform="matrix(1 0 0 -1 5.77237 7.07581)" fill="#FF4707"/>
</g>
<g filter="url(#filter5_d_265_861)">
<ellipse cx="11.8697" cy="6.8307" rx="0.12393" ry="0.122428" transform="rotate(-180 11.8697 6.8307)" fill="#FF4707"/>
</g>
<g filter="url(#filter6_d_265_861)">
<ellipse rx="0.12393" ry="0.122428" transform="matrix(1 0 0 -1 6.267 6.8307)" fill="#FF4707"/>
</g>
<g filter="url(#filter7_d_265_861)">
<ellipse cx="11.3736" cy="6.73206" rx="0.12393" ry="0.122428" transform="rotate(-180 11.3736 6.73206)" fill="#FF4707"/>
</g>
<g filter="url(#filter8_d_265_861)">
<ellipse cx="10.8775" cy="6.8805" rx="0.12393" ry="0.122428" transform="rotate(-180 10.8775 6.8805)" fill="#FF4707"/>
</g>
<g filter="url(#filter9_d_265_861)">
<ellipse cx="10.3824" cy="7.12464" rx="0.12393" ry="0.122428" transform="rotate(-180 10.3824 7.12464)" fill="#FF4707"/>
</g>
<g filter="url(#filter10_d_265_861)">
<ellipse cx="10.1339" cy="7.61488" rx="0.12393" ry="0.122428" transform="rotate(-180 10.1339 7.61488)" fill="#FF4707"/>
</g>
<g filter="url(#filter11_d_265_861)">
<ellipse cx="9.76279" cy="7.85902" rx="0.12393" ry="0.122428" transform="rotate(-180 9.76279 7.85902)" fill="#FF4707"/>
</g>
<g filter="url(#filter12_d_265_861)">
<ellipse cx="9.2667" cy="7.85902" rx="0.12393" ry="0.122428" transform="rotate(-180 9.2667 7.85902)" fill="#FF4707"/>
</g>
<g filter="url(#filter13_d_265_861)">
<ellipse cx="7.90341" cy="7.61488" rx="0.12393" ry="0.122428" transform="rotate(-180 7.90341 7.61488)" fill="#FF4707"/>
</g>
<g filter="url(#filter14_d_265_861)">
<ellipse cx="7.75498" cy="7.12464" rx="0.12393" ry="0.122428" transform="rotate(-180 7.75498 7.12464)" fill="#FF4707"/>
</g>
<g filter="url(#filter15_d_265_861)">
<ellipse cx="7.25888" cy="6.8805" rx="0.12393" ry="0.122428" transform="rotate(-180 7.25888 6.8805)" fill="#FF4707"/>
</g>
<g filter="url(#filter16_d_265_861)">
<ellipse cx="6.76279" cy="6.73206" rx="0.12393" ry="0.122428" transform="rotate(-180 6.76279 6.73206)" fill="#FF4707"/>
</g>
<g filter="url(#filter17_i_265_861)">
<rect width="0.0739087" height="0.340263" rx="0.0369543" transform="matrix(-0.711406 -0.702781 -0.711406 0.702781 9.56201 11.292)" fill="white"/>
<rect width="0.0739087" height="0.340263" rx="0.0369543" transform="matrix(-0.711406 -0.702781 -0.711406 0.702781 9.56201 11.0469)" fill="white"/>
<rect width="0.0739087" height="0.340263" rx="0.0369543" transform="matrix(-0.711406 -0.702781 -0.711406 0.702781 9.56201 10.8027)" fill="white"/>
<rect width="0.0739087" height="0.340263" rx="0.0369543" transform="matrix(-0.711406 -0.702781 -0.711406 0.702781 9.56201 10.5576)" fill="white"/>
<rect width="0.0739087" height="0.340263" rx="0.0369543" transform="matrix(0.711406 -0.702781 0.711406 0.702781 9.54004 11.2949)" fill="white"/>
<rect width="0.0739087" height="0.340263" rx="0.0369543" transform="matrix(0.711406 -0.702781 0.711406 0.702781 9.54004 11.0449)" fill="white"/>
<rect width="0.0739087" height="0.340263" rx="0.0369543" transform="matrix(0.711406 -0.702781 0.711406 0.702781 9.54004 10.7998)" fill="white"/>
<rect width="0.0739087" height="0.340263" rx="0.0369543" transform="matrix(0.711406 -0.702781 0.711406 0.702781 9.54004 10.5547)" fill="white"/>
<rect width="0.173502" height="6.61109" rx="0.0867511" transform="matrix(-1 0 0 1 9.6377 4.82617)" fill="white"/>
<path d="M9.71974 4.85138C9.66095 4.71305 9.46489 4.71305 9.4061 4.85138V4.85138C9.35833 4.96376 9.4408 5.08844 9.56292 5.08844V5.08844C9.68503 5.08844 9.76751 4.96376 9.71974 4.85138V4.85138Z" fill="white"/>
<rect width="0.0739087" height="0.340263" rx="0.0369543" transform="matrix(-0.711406 -0.702781 -0.711406 0.702781 8.96729 11.292)" fill="white"/>
<rect width="0.0739087" height="0.340263" rx="0.0369543" transform="matrix(-0.711406 -0.702781 -0.711406 0.702781 8.96729 11.0469)" fill="white"/>
<rect width="0.0739087" height="0.340263" rx="0.0369543" transform="matrix(-0.711406 -0.702781 -0.711406 0.702781 8.96729 10.8027)" fill="white"/>
<rect width="0.0739087" height="0.340263" rx="0.0369543" transform="matrix(-0.711406 -0.702781 -0.711406 0.702781 8.96729 10.5576)" fill="white"/>
<rect width="0.0739087" height="0.340263" rx="0.0369543" transform="matrix(0.711406 -0.702781 0.711406 0.702781 8.94678 11.2949)" fill="white"/>
<rect width="0.0739087" height="0.340263" rx="0.0369543" transform="matrix(0.711406 -0.702781 0.711406 0.702781 8.94678 11.0449)" fill="white"/>
<rect width="0.0739087" height="0.340263" rx="0.0369543" transform="matrix(0.711406 -0.702781 0.711406 0.702781 8.94678 10.7998)" fill="white"/>
<rect width="0.0739087" height="0.340263" rx="0.0369543" transform="matrix(0.711406 -0.702781 0.711406 0.702781 8.94678 10.5547)" fill="white"/>
<rect width="0.173502" height="6.61109" rx="0.0867511" transform="matrix(-1 0 0 1 9.04297 4.82617)" fill="white"/>
<path d="M9.12502 4.85138C9.06622 4.71305 8.87016 4.71305 8.81137 4.85138V4.85138C8.7636 4.96376 8.84608 5.08844 8.96819 5.08844V5.08844C9.09031 5.08844 9.17278 4.96376 9.12502 4.85138V4.85138Z" fill="white"/>
<rect width="0.0739087" height="0.340263" rx="0.0369543" transform="matrix(-0.711406 -0.702781 -0.711406 0.702781 8.42285 11.292)" fill="white"/>
<rect width="0.0739087" height="0.340263" rx="0.0369543" transform="matrix(-0.711406 -0.702781 -0.711406 0.702781 8.42285 11.0469)" fill="white"/>
<rect width="0.0739087" height="0.340263" rx="0.0369543" transform="matrix(-0.711406 -0.702781 -0.711406 0.702781 8.42285 10.8018)" fill="white"/>
<rect width="0.0739087" height="0.340263" rx="0.0369543" transform="matrix(-0.711406 -0.702781 -0.711406 0.702781 8.42285 10.5576)" fill="white"/>
<rect width="0.0739087" height="0.340263" rx="0.0369543" transform="matrix(0.711406 -0.702781 0.711406 0.702781 8.40186 11.2939)" fill="white"/>
<rect width="0.0739087" height="0.340263" rx="0.0369543" transform="matrix(0.711406 -0.702781 0.711406 0.702781 8.40186 11.0439)" fill="white"/>
<rect width="0.0739087" height="0.340263" rx="0.0369543" transform="matrix(0.711406 -0.702781 0.711406 0.702781 8.40186 10.7998)" fill="white"/>
<rect width="0.0739087" height="0.340263" rx="0.0369543" transform="matrix(0.711406 -0.702781 0.711406 0.702781 8.40186 10.5547)" fill="white"/>
<rect width="0.173502" height="6.61109" rx="0.0867511" transform="matrix(-1 0 0 1 8.49854 4.82617)" fill="white"/>
<path d="M8.58058 4.85138C8.52179 4.71305 8.32573 4.71305 8.26694 4.85138V4.85138C8.21917 4.96376 8.30164 5.08844 8.42376 5.08844V5.08844C8.54587 5.08844 8.62835 4.96376 8.58058 4.85138V4.85138Z" fill="white"/>
</g>
<g filter="url(#filter18_d_265_861)">
<ellipse cx="8.7706" cy="7.85902" rx="0.12393" ry="0.122428" transform="rotate(-180 8.7706 7.85902)" fill="#FF4707"/>
</g>
<g filter="url(#filter19_d_265_861)">
<ellipse cx="8.27597" cy="7.85902" rx="0.12393" ry="0.122428" transform="rotate(-180 8.27597 7.85902)" fill="#FF4707"/>
</g>
<defs>
<filter id="filter0_i_265_861" x="7.75439" y="7.61523" width="2.50342" height="0.539062" filterUnits="userSpaceOnUse" color-interpolation-filters="sRGB">
<feFlood flood-opacity="0" result="BackgroundImageFix"/>
<feBlend mode="normal" in="SourceGraphic" in2="BackgroundImageFix" result="shape"/>
<feColorMatrix in="SourceAlpha" type="matrix" values="0 0 0 0 0 0 0 0 0 0 0 0 0 0 0 0 0 0 127 0" result="hardAlpha"/>
<feMorphology radius="5" operator="erode" in="SourceAlpha" result="effect1_innerShadow_265_861"/>
<feOffset/>
<feGaussianBlur stdDeviation="3.5"/>
<feComposite in2="hardAlpha" operator="arithmetic" k2="-1" k3="1"/>
<feColorMatrix type="matrix" values="0 0 0 0 0 0 0 0 0 0 0 0 0 0 0 0 0 0 0.25 0"/>
<feBlend mode="normal" in2="shape" result="effect1_innerShadow_265_861"/>
</filter>
<filter id="filter1_d_265_861" x="7.73633" y="4.19727" width="10.248" height="10.2451" filterUnits="userSpaceOnUse" color-interpolation-filters="sRGB">
<feFlood flood-opacity="0" result="BackgroundImageFix"/>
<feColorMatrix in="SourceAlpha" type="matrix" values="0 0 0 0 0 0 0 0 0 0 0 0 0 0 0 0 0 0 127 0" result="hardAlpha"/>
<feOffset dy="2"/>
<feGaussianBlur stdDeviation="2.5"/>
<feComposite in2="hardAlpha" operator="out"/>
<feColorMatrix type="matrix" values="0 0 0 0 0 0 0 0 0 0 0 0 0 0 0 0 0 0 0.25 0"/>
<feBlend mode="normal" in2="BackgroundImageFix" result="effect1_dropShadow_265_861"/>
<feBlend mode="normal" in="SourceGraphic" in2="effect1_dropShadow_265_861" result="shape"/>
</filter>
<filter id="filter2_d_265_861" x="0.152344" y="4.19727" width="10.248" height="10.2451" filterUnits="userSpaceOnUse" color-interpolation-filters="sRGB">
<feFlood flood-opacity="0" result="BackgroundImageFix"/>
<feColorMatrix in="SourceAlpha" type="matrix" values="0 0 0 0 0 0 0 0 0 0 0 0 0 0 0 0 0 0 127 0" result="hardAlpha"/>
<feOffset dy="2"/>
<feGaussianBlur stdDeviation="2.5"/>
<feComposite in2="hardAlpha" operator="out"/>
<feColorMatrix type="matrix" values="0 0 0 0 0 0 0 0 0 0 0 0 0 0 0 0 0 0 0.25 0"/>
<feBlend mode="normal" in2="BackgroundImageFix" result="effect1_dropShadow_265_861"/>
<feBlend mode="normal" in="SourceGraphic" in2="effect1_dropShadow_265_861" result="shape"/>
</filter>
<filter id="filter3_d_265_861" x="7.24023" y="3.95312" width="10.248" height="10.2451" filterUnits="userSpaceOnUse" color-interpolation-filters="sRGB">
<feFlood flood-opacity="0" result="BackgroundImageFix"/>
<feColorMatrix in="SourceAlpha" type="matrix" values="0 0 0 0 0 0 0 0 0 0 0 0 0 0 0 0 0 0 127 0" result="hardAlpha"/>
<feOffset dy="2"/>
<feGaussianBlur stdDeviation="2.5"/>
<feComposite in2="hardAlpha" operator="out"/>
<feColorMatrix type="matrix" values="0 0 0 0 0 0 0 0 0 0 0 0 0 0 0 0 0 0 0.25 0"/>
<feBlend mode="normal" in2="BackgroundImageFix" result="effect1_dropShadow_265_861"/>
<feBlend mode="normal" in="SourceGraphic" in2="effect1_dropShadow_265_861" result="shape"/>
</filter>
<filter id="filter4_d_265_861" x="0.648438" y="3.95312" width="10.248" height="10.2451" filterUnits="userSpaceOnUse" color-interpolation-filters="sRGB">
<feFlood flood-opacity="0" result="BackgroundImageFix"/>
<feColorMatrix in="SourceAlpha" type="matrix" values="0 0 0 0 0 0 0 0 0 0 0 0 0 0 0 0 0 0 127 0" result="hardAlpha"/>
<feOffset dy="2"/>
<feGaussianBlur stdDeviation="2.5"/>
<feComposite in2="hardAlpha" operator="out"/>
<feColorMatrix type="matrix" values="0 0 0 0 0 0 0 0 0 0 0 0 0 0 0 0 0 0 0.25 0"/>
<feBlend mode="normal" in2="BackgroundImageFix" result="effect1_dropShadow_265_861"/>
<feBlend mode="normal" in="SourceGraphic" in2="effect1_dropShadow_265_861" result="shape"/>
</filter>
<filter id="filter5_d_265_861" x="6.74561" y="3.70801" width="10.248" height="10.2451" filterUnits="userSpaceOnUse" color-interpolation-filters="sRGB">
<feFlood flood-opacity="0" result="BackgroundImageFix"/>
<feColorMatrix in="SourceAlpha" type="matrix" values="0 0 0 0 0 0 0 0 0 0 0 0 0 0 0 0 0 0 127 0" result="hardAlpha"/>
<feOffset dy="2"/>
<feGaussianBlur stdDeviation="2.5"/>
<feComposite in2="hardAlpha" operator="out"/>
<feColorMatrix type="matrix" values="0 0 0 0 0 0 0 0 0 0 0 0 0 0 0 0 0 0 0.25 0"/>
<feBlend mode="normal" in2="BackgroundImageFix" result="effect1_dropShadow_265_861"/>
<feBlend mode="normal" in="SourceGraphic" in2="effect1_dropShadow_265_861" result="shape"/>
</filter>
<filter id="filter6_d_265_861" x="1.14307" y="3.70801" width="10.248" height="10.2451" filterUnits="userSpaceOnUse" color-interpolation-filters="sRGB">
<feFlood flood-opacity="0" result="BackgroundImageFix"/>
<feColorMatrix in="SourceAlpha" type="matrix" values="0 0 0 0 0 0 0 0 0 0 0 0 0 0 0 0 0 0 127 0" result="hardAlpha"/>
<feOffset dy="2"/>
<feGaussianBlur stdDeviation="2.5"/>
<feComposite in2="hardAlpha" operator="out"/>
<feColorMatrix type="matrix" values="0 0 0 0 0 0 0 0 0 0 0 0 0 0 0 0 0 0 0.25 0"/>
<feBlend mode="normal" in2="BackgroundImageFix" result="effect1_dropShadow_265_861"/>
<feBlend mode="normal" in="SourceGraphic" in2="effect1_dropShadow_265_861" result="shape"/>
</filter>
<filter id="filter7_d_265_861" x="6.24951" y="3.60938" width="10.248" height="10.2451" filterUnits="userSpaceOnUse" color-interpolation-filters="sRGB">
<feFlood flood-opacity="0" result="BackgroundImageFix"/>
<feColorMatrix in="SourceAlpha" type="matrix" values="0 0 0 0 0 0 0 0 0 0 0 0 0 0 0 0 0 0 127 0" result="hardAlpha"/>
<feOffset dy="2"/>
<feGaussianBlur stdDeviation="2.5"/>
<feComposite in2="hardAlpha" operator="out"/>
<feColorMatrix type="matrix" values="0 0 0 0 0 0 0 0 0 0 0 0 0 0 0 0 0 0 0.25 0"/>
<feBlend mode="normal" in2="BackgroundImageFix" result="effect1_dropShadow_265_861"/>
<feBlend mode="normal" in="SourceGraphic" in2="effect1_dropShadow_265_861" result="shape"/>
</filter>
<filter id="filter8_d_265_861" x="5.75342" y="3.75781" width="10.248" height="10.2451" filterUnits="userSpaceOnUse" color-interpolation-filters="sRGB">
<feFlood flood-opacity="0" result="BackgroundImageFix"/>
<feColorMatrix in="SourceAlpha" type="matrix" values="0 0 0 0 0 0 0 0 0 0 0 0 0 0 0 0 0 0 127 0" result="hardAlpha"/>
<feOffset dy="2"/>
<feGaussianBlur stdDeviation="2.5"/>
<feComposite in2="hardAlpha" operator="out"/>
<feColorMatrix type="matrix" values="0 0 0 0 0 0 0 0 0 0 0 0 0 0 0 0 0 0 0.25 0"/>
<feBlend mode="normal" in2="BackgroundImageFix" result="effect1_dropShadow_265_861"/>
<feBlend mode="normal" in="SourceGraphic" in2="effect1_dropShadow_265_861" result="shape"/>
</filter>
<filter id="filter9_d_265_861" x="5.2583" y="4.00195" width="10.248" height="10.2451" filterUnits="userSpaceOnUse" color-interpolation-filters="sRGB">
<feFlood flood-opacity="0" result="BackgroundImageFix"/>
<feColorMatrix in="SourceAlpha" type="matrix" values="0 0 0 0 0 0 0 0 0 0 0 0 0 0 0 0 0 0 127 0" result="hardAlpha"/>
<feOffset dy="2"/>
<feGaussianBlur stdDeviation="2.5"/>
<feComposite in2="hardAlpha" operator="out"/>
<feColorMatrix type="matrix" values="0 0 0 0 0 0 0 0 0 0 0 0 0 0 0 0 0 0 0.25 0"/>
<feBlend mode="normal" in2="BackgroundImageFix" result="effect1_dropShadow_265_861"/>
<feBlend mode="normal" in="SourceGraphic" in2="effect1_dropShadow_265_861" result="shape"/>
</filter>
<filter id="filter10_d_265_861" x="5.00977" y="4.49219" width="10.248" height="10.2451" filterUnits="userSpaceOnUse" color-interpolation-filters="sRGB">
<feFlood flood-opacity="0" result="BackgroundImageFix"/>
<feColorMatrix in="SourceAlpha" type="matrix" values="0 0 0 0 0 0 0 0 0 0 0 0 0 0 0 0 0 0 127 0" result="hardAlpha"/>
<feOffset dy="2"/>
<feGaussianBlur stdDeviation="2.5"/>
<feComposite in2="hardAlpha" operator="out"/>
<feColorMatrix type="matrix" values="0 0 0 0 0 0 0 0 0 0 0 0 0 0 0 0 0 0 0.25 0"/>
<feBlend mode="normal" in2="BackgroundImageFix" result="effect1_dropShadow_265_861"/>
<feBlend mode="normal" in="SourceGraphic" in2="effect1_dropShadow_265_861" result="shape"/>
</filter>
<filter id="filter11_d_265_861" x="4.63867" y="4.73633" width="10.248" height="10.2451" filterUnits="userSpaceOnUse" color-interpolation-filters="sRGB">
<feFlood flood-opacity="0" result="BackgroundImageFix"/>
<feColorMatrix in="SourceAlpha" type="matrix" values="0 0 0 0 0 0 0 0 0 0 0 0 0 0 0 0 0 0 127 0" result="hardAlpha"/>
<feOffset dy="2"/>
<feGaussianBlur stdDeviation="2.5"/>
<feComposite in2="hardAlpha" operator="out"/>
<feColorMatrix type="matrix" values="0 0 0 0 0 0 0 0 0 0 0 0 0 0 0 0 0 0 0.25 0"/>
<feBlend mode="normal" in2="BackgroundImageFix" result="effect1_dropShadow_265_861"/>
<feBlend mode="normal" in="SourceGraphic" in2="effect1_dropShadow_265_861" result="shape"/>
</filter>
<filter id="filter12_d_265_861" x="4.14258" y="4.73633" width="10.248" height="10.2451" filterUnits="userSpaceOnUse" color-interpolation-filters="sRGB">
<feFlood flood-opacity="0" result="BackgroundImageFix"/>
<feColorMatrix in="SourceAlpha" type="matrix" values="0 0 0 0 0 0 0 0 0 0 0 0 0 0 0 0 0 0 127 0" result="hardAlpha"/>
<feOffset dy="2"/>
<feGaussianBlur stdDeviation="2.5"/>
<feComposite in2="hardAlpha" operator="out"/>
<feColorMatrix type="matrix" values="0 0 0 0 0 0 0 0 0 0 0 0 0 0 0 0 0 0 0.25 0"/>
<feBlend mode="normal" in2="BackgroundImageFix" result="effect1_dropShadow_265_861"/>
<feBlend mode="normal" in="SourceGraphic" in2="effect1_dropShadow_265_861" result="shape"/>
</filter>
<filter id="filter13_d_265_861" x="2.7793" y="4.49219" width="10.248" height="10.2451" filterUnits="userSpaceOnUse" color-interpolation-filters="sRGB">
<feFlood flood-opacity="0" result="BackgroundImageFix"/>
<feColorMatrix in="SourceAlpha" type="matrix" values="0 0 0 0 0 0 0 0 0 0 0 0 0 0 0 0 0 0 127 0" result="hardAlpha"/>
<feOffset dy="2"/>
<feGaussianBlur stdDeviation="2.5"/>
<feComposite in2="hardAlpha" operator="out"/>
<feColorMatrix type="matrix" values="0 0 0 0 0 0 0 0 0 0 0 0 0 0 0 0 0 0 0.25 0"/>
<feBlend mode="normal" in2="BackgroundImageFix" result="effect1_dropShadow_265_861"/>
<feBlend mode="normal" in="SourceGraphic" in2="effect1_dropShadow_265_861" result="shape"/>
</filter>
<filter id="filter14_d_265_861" x="2.63086" y="4.00195" width="10.248" height="10.2451" filterUnits="userSpaceOnUse" color-interpolation-filters="sRGB">
<feFlood flood-opacity="0" result="BackgroundImageFix"/>
<feColorMatrix in="SourceAlpha" type="matrix" values="0 0 0 0 0 0 0 0 0 0 0 0 0 0 0 0 0 0 127 0" result="hardAlpha"/>
<feOffset dy="2"/>
<feGaussianBlur stdDeviation="2.5"/>
<feComposite in2="hardAlpha" operator="out"/>
<feColorMatrix type="matrix" values="0 0 0 0 0 0 0 0 0 0 0 0 0 0 0 0 0 0 0.25 0"/>
<feBlend mode="normal" in2="BackgroundImageFix" result="effect1_dropShadow_265_861"/>
<feBlend mode="normal" in="SourceGraphic" in2="effect1_dropShadow_265_861" result="shape"/>
</filter>
<filter id="filter15_d_265_861" x="2.13477" y="3.75781" width="10.248" height="10.2451" filterUnits="userSpaceOnUse" color-interpolation-filters="sRGB">
<feFlood flood-opacity="0" result="BackgroundImageFix"/>
<feColorMatrix in="SourceAlpha" type="matrix" values="0 0 0 0 0 0 0 0 0 0 0 0 0 0 0 0 0 0 127 0" result="hardAlpha"/>
<feOffset dy="2"/>
<feGaussianBlur stdDeviation="2.5"/>
<feComposite in2="hardAlpha" operator="out"/>
<feColorMatrix type="matrix" values="0 0 0 0 0 0 0 0 0 0 0 0 0 0 0 0 0 0 0.25 0"/>
<feBlend mode="normal" in2="BackgroundImageFix" result="effect1_dropShadow_265_861"/>
<feBlend mode="normal" in="SourceGraphic" in2="effect1_dropShadow_265_861" result="shape"/>
</filter>
<filter id="filter16_d_265_861" x="1.63867" y="3.60938" width="10.248" height="10.2451" filterUnits="userSpaceOnUse" color-interpolation-filters="sRGB">
<feFlood flood-opacity="0" result="BackgroundImageFix"/>
<feColorMatrix in="SourceAlpha" type="matrix" values="0 0 0 0 0 0 0 0 0 0 0 0 0 0 0 0 0 0 127 0" result="hardAlpha"/>
<feOffset dy="2"/>
<feGaussianBlur stdDeviation="2.5"/>
<feComposite in2="hardAlpha" operator="out"/>
<feColorMatrix type="matrix" values="0 0 0 0 0 0 0 0 0 0 0 0 0 0 0 0 0 0 0.25 0"/>
<feBlend mode="normal" in2="BackgroundImageFix" result="effect1_dropShadow_265_861"/>
<feBlend mode="normal" in="SourceGraphic" in2="effect1_dropShadow_265_861" result="shape"/>
</filter>
<filter id="filter17_i_265_861" x="8.14355" y="4.74805" width="1.67578" height="6.77051" filterUnits="userSpaceOnUse" color-interpolation-filters="sRGB">
<feFlood flood-opacity="0" result="BackgroundImageFix"/>
<feBlend mode="normal" in="SourceGraphic" in2="BackgroundImageFix" result="shape"/>
<feColorMatrix in="SourceAlpha" type="matrix" values="0 0 0 0 0 0 0 0 0 0 0 0 0 0 0 0 0 0 127 0" result="hardAlpha"/>
<feOffset dy="10"/>
<feGaussianBlur stdDeviation="1"/>
<feComposite in2="hardAlpha" operator="arithmetic" k2="-1" k3="1"/>
<feColorMatrix type="matrix" values="0 0 0 0 0 0 0 0 0 0 0 0 0 0 0 0 0 0 0.25 0"/>
<feBlend mode="normal" in2="shape" result="effect1_innerShadow_265_861"/>
</filter>
<filter id="filter18_d_265_861" x="3.64648" y="4.73633" width="10.248" height="10.2451" filterUnits="userSpaceOnUse" color-interpolation-filters="sRGB">
<feFlood flood-opacity="0" result="BackgroundImageFix"/>
<feColorMatrix in="SourceAlpha" type="matrix" values="0 0 0 0 0 0 0 0 0 0 0 0 0 0 0 0 0 0 127 0" result="hardAlpha"/>
<feOffset dy="2"/>
<feGaussianBlur stdDeviation="2.5"/>
<feComposite in2="hardAlpha" operator="out"/>
<feColorMatrix type="matrix" values="0 0 0 0 0 0 0 0 0 0 0 0 0 0 0 0 0 0 0.25 0"/>
<feBlend mode="normal" in2="BackgroundImageFix" result="effect1_dropShadow_265_861"/>
<feBlend mode="normal" in="SourceGraphic" in2="effect1_dropShadow_265_861" result="shape"/>
</filter>
<filter id="filter19_d_265_861" x="3.15186" y="4.73633" width="10.248" height="10.2451" filterUnits="userSpaceOnUse" color-interpolation-filters="sRGB">
<feFlood flood-opacity="0" result="BackgroundImageFix"/>
<feColorMatrix in="SourceAlpha" type="matrix" values="0 0 0 0 0 0 0 0 0 0 0 0 0 0 0 0 0 0 127 0" result="hardAlpha"/>
<feOffset dy="2"/>
<feGaussianBlur stdDeviation="2.5"/>
<feComposite in2="hardAlpha" operator="out"/>
<feColorMatrix type="matrix" values="0 0 0 0 0 0 0 0 0 0 0 0 0 0 0 0 0 0 0.25 0"/>
<feBlend mode="normal" in2="BackgroundImageFix" result="effect1_dropShadow_265_861"/>
<feBlend mode="normal" in="SourceGraphic" in2="effect1_dropShadow_265_861" result="shape"/>
</filter>
</defs>
</svg>
